<svg width="206" height="63" viewBox="0 0 206 63" fill="none" xmlns="http://www.w3.org/2000/svg">
<path d="M9.136 26.252L2.764 4.832C2.596 4.208 2.344 3.776 2.008 3.536C1.672 3.272 1.096 3.14 0.28 3.14C0.28 2.732 0.316 2.348 0.388 1.988C0.46 1.604 0.604 1.232 0.82 0.872H10.54C10.684 1.16 10.816 1.508 10.936 1.916C11.08 2.324 11.152 2.732 11.152 3.14C10.24 3.14 9.64 3.308 9.352 3.644C9.088 3.956 8.956 4.316 8.956 4.724L12.052 16.352L12.628 19.304L16.048 6.164C16.216 5.252 16.516 4.436 16.948 3.716C17.38 2.996 17.968 2.636 18.712 2.636H22.492L26.056 16.352L26.848 19.448L27.676 16.28L30.34 5.912C30.412 5.648 30.448 5.408 30.448 5.192C30.448 4.568 30.22 4.076 29.764 3.716C29.308 3.332 28.696 3.14 27.928 3.14C27.928 2.732 27.964 2.348 28.036 1.988C28.108 1.604 28.24 1.232 28.432 0.872H36.892C37.084 1.208 37.216 1.568 37.288 1.952C37.384 2.336 37.432 2.732 37.432 3.14C36.616 3.14 35.968 3.272 35.488 3.536C35.032 3.776 34.708 4.208 34.516 4.832L29.98 21.32C29.524 23 28.924 24.248 28.18 25.064C27.46 25.856 26.5 26.252 25.3 26.252H23.284L19.972 14.66L18.568 9.368L17.416 14.696L15.58 21.32C15.124 23 14.56 24.248 13.888 25.064C13.216 25.856 12.28 26.252 11.08 26.252H9.136ZM35.0689 26C34.5169 25.4 34.2409 24.632 34.2409 23.696C34.8889 23.696 35.4889 23.504 36.0409 23.12C36.6169 22.736 37.0369 22.148 37.3009 21.356L43.2049 3.932C42.2449 3.62 41.0329 3.464 39.5689 3.464C39.5689 2.432 39.8569 1.568 40.4329 0.872H50.2969L56.9929 21.248C57.2569 22.04 57.6769 22.652 58.2529 23.084C58.8289 23.492 59.4289 23.696 60.0529 23.696C60.0529 24.632 59.7769 25.4 59.2249 26H49.4689C48.9169 25.4 48.6409 24.632 48.6409 23.696C49.2649 23.696 49.7569 23.564 50.1169 23.3C50.5009 23.012 50.6929 22.568 50.6929 21.968C50.6929 21.752 50.6689 21.5 50.6209 21.212C50.5969 20.924 50.5369 20.612 50.4409 20.276L50.2249 19.52H42.1609L41.9449 20.276C41.8489 20.588 41.7649 20.876 41.6929 21.14C41.6449 21.404 41.6209 21.644 41.6209 21.86C41.6209 22.508 41.8249 22.976 42.2329 23.264C42.6409 23.552 43.2049 23.696 43.9249 23.696C43.9249 24.632 43.6489 25.4 43.0969 26H35.0689ZM42.9529 16.712H49.4329L46.8769 7.784C46.6609 7.064 46.3849 6.452 46.0489 5.948L42.9529 16.712ZM79.9162 26.252C78.3802 26.252 77.2042 26 76.3882 25.496C75.5722 24.968 74.9722 24.272 74.5882 23.408C74.2042 22.544 73.8682 21.596 73.5802 20.564C73.4122 19.868 73.1962 19.148 72.9322 18.404C72.6922 17.66 72.4042 17 72.0682 16.424C71.7322 15.848 71.3242 15.476 70.8442 15.308H68.4682V21.896C68.4682 22.568 68.7082 23.048 69.1882 23.336C69.6682 23.6 70.2562 23.732 70.9522 23.732C70.9522 24.596 70.6882 25.352 70.1602 26H61.1242C60.5722 25.328 60.2962 24.572 60.2962 23.732C61.1122 23.732 61.7002 23.6 62.0602 23.336C62.4442 23.048 62.6362 22.568 62.6362 21.896V4.976C62.6362 4.304 62.4442 3.836 62.0602 3.572C61.6762 3.284 61.0762 3.14 60.2602 3.14C60.2602 2.732 60.3202 2.324 60.4402 1.916C60.5602 1.508 60.7402 1.16 60.9802 0.872C62.0122 0.872 62.9722 0.859999 63.8602 0.835998C64.7482 0.787998 65.5642 0.751999 66.3082 0.727999C66.9562 0.679998 67.6642 0.643998 68.4322 0.619998C69.2242 0.595999 69.9922 0.583999 70.7362 0.583999C73.2322 0.583999 75.2122 0.871999 76.6762 1.448C78.1642 2.024 79.2322 2.828 79.8802 3.86C80.5282 4.892 80.8522 6.116 80.8522 7.532C80.8522 11.036 78.9202 13.184 75.0562 13.976C76.1122 14.288 77.1322 15.032 78.1162 16.208C79.1242 17.384 79.8802 18.8 80.3842 20.456C80.6482 21.344 80.9842 22.016 81.3922 22.472C81.8242 22.928 82.3762 23.204 83.0482 23.3V25.1C82.7362 25.556 82.2922 25.856 81.7162 26C81.1402 26.168 80.5402 26.252 79.9162 26.252ZM70.0522 12.824C71.5162 12.824 72.6442 12.368 73.4362 11.456C74.2522 10.544 74.6602 9.356 74.6602 7.892C74.6602 6.404 74.3122 5.276 73.6162 4.508C72.9202 3.716 71.7922 3.32 70.2322 3.32C69.9922 3.32 69.6802 3.332 69.2962 3.356C68.9362 3.38 68.6602 3.416 68.4682 3.464V12.752C68.6362 12.776 68.9002 12.8 69.2602 12.824C69.6202 12.824 69.8842 12.824 70.0522 12.824ZM104.66 26.216C103.412 26.216 102.512 26.048 101.96 25.712C101.432 25.376 100.94 24.872 100.484 24.2L90.4038 8.9V21.896C90.4038 22.568 90.6318 23.048 91.0878 23.336C91.5678 23.6 92.2158 23.732 93.0318 23.732C93.0318 24.572 92.7558 25.328 92.2038 26H84.7158C84.1878 25.352 83.9238 24.596 83.9238 23.732C84.7398 23.732 85.3518 23.6 85.7598 23.336C86.1918 23.048 86.4078 22.568 86.4078 21.896V4.976C86.4078 4.304 86.1678 3.836 85.6878 3.572C85.2318 3.284 84.5958 3.14 83.7798 3.14C83.7798 2.228 84.0438 1.472 84.5718 0.872H89.5758C90.2718 0.872 90.9678 1.148 91.6638 1.7C92.3838 2.228 93.0438 2.972 93.6438 3.932L101.816 16.856V4.976C101.816 4.304 101.588 3.836 101.132 3.572C100.7 3.284 100.076 3.14 99.2598 3.14C99.2598 2.732 99.3318 2.324 99.4758 1.916C99.6198 1.508 99.8238 1.16 100.088 0.872H107.756C108.308 1.496 108.584 2.252 108.584 3.14C107.792 3.14 107.18 3.284 106.748 3.572C106.316 3.836 106.1 4.304 106.1 4.976V26.216H104.66ZM128.839 26.576C128.695 26.528 128.515 26.468 128.299 26.396C128.083 26.324 127.759 26.192 127.327 26H110.659C110.419 25.688 110.215 25.34 110.047 24.956C109.903 24.548 109.831 24.14 109.831 23.732C110.623 23.732 111.211 23.588 111.595 23.3C112.003 23.012 112.207 22.532 112.207 21.86V4.976C112.207 4.304 112.015 3.836 111.631 3.572C111.247 3.284 110.659 3.14 109.867 3.14C109.867 2.732 109.939 2.336 110.083 1.952C110.251 1.544 110.455 1.184 110.695 0.872H124.663C125.095 0.679999 125.575 0.535999 126.103 0.439999C126.631 0.319999 127.123 0.259999 127.579 0.259999C127.795 0.643998 128.035 1.208 128.299 1.952C128.587 2.672 128.839 3.392 129.055 4.112C129.271 4.832 129.379 5.396 129.379 5.804C129.187 5.996 128.875 6.188 128.443 6.38C128.035 6.572 127.615 6.74 127.183 6.884C126.751 7.028 126.391 7.136 126.103 7.208C125.839 6.416 125.371 5.672 124.699 4.976C124.051 4.28 123.247 3.932 122.287 3.932H118.219V11.528H120.811C121.483 11.528 122.035 11.336 122.467 10.952C122.923 10.544 123.151 9.86 123.151 8.9C124.231 8.9 125.203 9.152 126.067 9.656V16.352C125.251 16.856 124.291 17.108 123.187 17.108C123.187 16.148 122.959 15.452 122.503 15.02C122.071 14.588 121.519 14.372 120.847 14.372H118.219V22.832H122.575C123.631 22.832 124.519 22.4 125.239 21.536C125.983 20.648 126.439 19.604 126.607 18.404H130.459C130.459 18.764 130.399 19.328 130.279 20.096C130.183 20.84 130.051 21.656 129.883 22.544C129.739 23.408 129.571 24.212 129.379 24.956C129.187 25.7 129.007 26.24 128.839 26.576ZM151.494 26.252C149.958 26.252 148.782 26 147.966 25.496C147.15 24.968 146.55 24.272 146.166 23.408C145.782 22.544 145.446 21.596 145.158 20.564C144.99 19.868 144.774 19.148 144.51 18.404C144.27 17.66 143.982 17 143.646 16.424C143.31 15.848 142.902 15.476 142.422 15.308H140.046V21.896C140.046 22.568 140.286 23.048 140.766 23.336C141.246 23.6 141.834 23.732 142.53 23.732C142.53 24.596 142.266 25.352 141.738 26H132.702C132.15 25.328 131.874 24.572 131.874 23.732C132.69 23.732 133.278 23.6 133.638 23.336C134.022 23.048 134.214 22.568 134.214 21.896V4.976C134.214 4.304 134.022 3.836 133.638 3.572C133.254 3.284 132.654 3.14 131.838 3.14C131.838 2.732 131.898 2.324 132.018 1.916C132.138 1.508 132.318 1.16 132.558 0.872C133.59 0.872 134.55 0.859999 135.438 0.835998C136.326 0.787998 137.142 0.751999 137.886 0.727999C138.534 0.679998 139.242 0.643998 140.01 0.619998C140.802 0.595999 141.57 0.583999 142.314 0.583999C144.81 0.583999 146.79 0.871999 148.254 1.448C149.742 2.024 150.81 2.828 151.458 3.86C152.106 4.892 152.43 6.116 152.43 7.532C152.43 11.036 150.498 13.184 146.634 13.976C147.69 14.288 148.71 15.032 149.694 16.208C150.702 17.384 151.458 18.8 151.962 20.456C152.226 21.344 152.562 22.016 152.97 22.472C153.402 22.928 153.954 23.204 154.626 23.3V25.1C154.314 25.556 153.87 25.856 153.294 26C152.718 26.168 152.118 26.252 151.494 26.252ZM141.63 12.824C143.094 12.824 144.222 12.368 145.014 11.456C145.83 10.544 146.238 9.356 146.238 7.892C146.238 6.404 145.89 5.276 145.194 4.508C144.498 3.716 143.37 3.32 141.81 3.32C141.57 3.32 141.258 3.332 140.874 3.356C140.514 3.38 140.238 3.416 140.046 3.464V12.752C140.214 12.776 140.478 12.8 140.838 12.824C141.198 12.824 141.462 12.824 141.63 12.824ZM52.0483 62.54C51.7363 61.916 51.4483 61.052 51.1843 59.948C50.9443 58.82 50.7403 57.644 50.5723 56.42C50.4283 55.196 50.3563 54.104 50.3563 53.144H53.9563C54.3403 55.184 55.0963 56.78 56.2243 57.932C57.3763 59.084 58.7083 59.66 60.2203 59.66C60.9643 59.66 61.5403 59.516 61.9483 59.228C62.3803 58.916 62.6923 58.544 62.8843 58.112C63.0763 57.68 63.1723 57.272 63.1723 56.888C63.1723 56.096 62.9083 55.412 62.3803 54.836C61.8523 54.26 61.1803 53.744 60.3643 53.288C59.5723 52.808 58.7683 52.376 57.9523 51.992C55.8403 50.96 54.1723 49.784 52.9483 48.464C51.7243 47.12 51.1123 45.44 51.1123 43.424C51.1123 41.96 51.4723 40.724 52.1923 39.716C52.9123 38.684 53.8723 37.892 55.0723 37.34C56.2963 36.788 57.6643 36.512 59.1763 36.512C59.8723 36.512 60.6883 36.584 61.6243 36.728C62.5843 36.872 63.3643 37.112 63.9643 37.448L67.0243 36.512C67.3603 37.064 67.5883 37.796 67.7083 38.708C67.8523 39.596 67.9363 40.52 67.9603 41.48C68.0083 42.44 68.0323 43.316 68.0323 44.108V44.648H65.0443C64.5403 42.608 63.8323 41.228 62.9203 40.508C62.0083 39.764 61.0243 39.392 59.9683 39.392C58.9843 39.392 58.2523 39.68 57.7723 40.256C57.3163 40.808 57.0883 41.504 57.0883 42.344C57.0883 43.112 57.2923 43.76 57.7003 44.288C58.1323 44.816 58.6843 45.284 59.3563 45.692C60.0283 46.076 60.7363 46.46 61.4803 46.844C62.2963 47.228 63.1483 47.672 64.0363 48.176C64.9243 48.656 65.7403 49.22 66.4843 49.868C67.2523 50.516 67.8643 51.284 68.3203 52.172C68.8003 53.06 69.0403 54.104 69.0403 55.304C69.0403 56.624 68.7043 57.836 68.0323 58.94C67.3603 60.02 66.4003 60.896 65.1523 61.568C63.9043 62.216 62.3923 62.54 60.6163 62.54C59.8003 62.54 58.9003 62.444 57.9163 62.252C56.9563 62.084 55.9243 61.772 54.8203 61.316L52.0483 62.54ZM71.9515 62C71.3995 61.376 71.1235 60.608 71.1235 59.696C71.9395 59.696 72.5155 59.564 72.8515 59.3C73.2115 59.036 73.3915 58.568 73.3915 57.896V40.976C73.3915 40.304 73.2115 39.836 72.8515 39.572C72.5155 39.284 71.9395 39.14 71.1235 39.14C71.1235 38.732 71.1955 38.336 71.3395 37.952C71.4835 37.544 71.6755 37.184 71.9155 36.872C74.2675 36.872 76.1515 36.836 77.5675 36.764C78.9835 36.668 80.1955 36.62 81.2035 36.62C83.7475 36.62 85.7635 36.932 87.2515 37.556C88.7635 38.18 89.8435 39.104 90.4915 40.328C91.1635 41.528 91.4995 43.004 91.4995 44.756C91.4995 46.316 91.1035 47.732 90.3115 49.004C89.5435 50.276 88.3675 51.284 86.7835 52.028C85.2235 52.748 83.2315 53.108 80.8075 53.108H79.2955V56.276C79.2955 57.212 79.3915 57.932 79.5835 58.436C79.7995 58.916 80.1955 59.252 80.7715 59.444C81.3475 59.612 82.1635 59.696 83.2195 59.696C83.2195 60.632 82.9555 61.4 82.4275 62H71.9515ZM80.2315 50.228C81.3595 50.228 82.2475 50.06 82.8955 49.724C83.5675 49.364 84.0715 48.908 84.4075 48.356C84.7435 47.804 84.9595 47.204 85.0555 46.556C85.1755 45.884 85.2355 45.248 85.2355 44.648C85.2355 43.736 85.0915 42.884 84.8035 42.092C84.5395 41.3 84.0715 40.664 83.3995 40.184C82.7515 39.704 81.8275 39.464 80.6275 39.464C80.0995 39.464 79.6555 39.512 79.2955 39.608V50.156C79.4635 50.18 79.6195 50.204 79.7635 50.228C79.9075 50.228 80.0635 50.228 80.2315 50.228ZM111.436 62.576C111.292 62.528 111.112 62.468 110.896 62.396C110.68 62.324 110.356 62.192 109.924 62H93.2562C93.0162 61.688 92.8122 61.34 92.6442 60.956C92.5002 60.548 92.4282 60.14 92.4282 59.732C93.2202 59.732 93.8082 59.588 94.1922 59.3C94.6002 59.012 94.8042 58.532 94.8042 57.86V40.976C94.8042 40.304 94.6122 39.836 94.2282 39.572C93.8442 39.284 93.2562 39.14 92.4642 39.14C92.4642 38.732 92.5362 38.336 92.6802 37.952C92.8482 37.544 93.0522 37.184 93.2922 36.872H107.26C107.692 36.68 108.172 36.536 108.7 36.44C109.228 36.32 109.72 36.26 110.176 36.26C110.392 36.644 110.632 37.208 110.896 37.952C111.184 38.672 111.436 39.392 111.652 40.112C111.868 40.832 111.976 41.396 111.976 41.804C111.784 41.996 111.472 42.188 111.04 42.38C110.632 42.572 110.212 42.74 109.78 42.884C109.348 43.028 108.988 43.136 108.7 43.208C108.436 42.416 107.968 41.672 107.296 40.976C106.648 40.28 105.844 39.932 104.884 39.932H100.816V47.528H103.408C104.08 47.528 104.632 47.336 105.064 46.952C105.52 46.544 105.748 45.86 105.748 44.9C106.828 44.9 107.8 45.152 108.664 45.656V52.352C107.848 52.856 106.888 53.108 105.784 53.108C105.784 52.148 105.556 51.452 105.1 51.02C104.668 50.588 104.116 50.372 103.444 50.372H100.816V58.832H105.172C106.228 58.832 107.116 58.4 107.836 57.536C108.58 56.648 109.036 55.604 109.204 54.404H113.056C113.056 54.764 112.996 55.328 112.876 56.096C112.78 56.84 112.648 57.656 112.48 58.544C112.336 59.408 112.168 60.212 111.976 60.956C111.784 61.7 111.604 62.24 111.436 62.576ZM135.246 62.216C133.998 62.216 133.098 62.048 132.546 61.712C132.018 61.376 131.526 60.872 131.07 60.2L120.99 44.9V57.896C120.99 58.568 121.218 59.048 121.674 59.336C122.154 59.6 122.802 59.732 123.618 59.732C123.618 60.572 123.342 61.328 122.79 62H115.302C114.774 61.352 114.51 60.596 114.51 59.732C115.326 59.732 115.938 59.6 116.346 59.336C116.778 59.048 116.994 58.568 116.994 57.896V40.976C116.994 40.304 116.754 39.836 116.274 39.572C115.818 39.284 115.182 39.14 114.366 39.14C114.366 38.228 114.63 37.472 115.158 36.872H120.162C120.858 36.872 121.554 37.148 122.25 37.7C122.97 38.228 123.63 38.972 124.23 39.932L132.402 52.856V40.976C132.402 40.304 132.174 39.836 131.718 39.572C131.286 39.284 130.662 39.14 129.846 39.14C129.846 38.732 129.918 38.324 130.062 37.916C130.206 37.508 130.41 37.16 130.674 36.872H138.342C138.894 37.496 139.17 38.252 139.17 39.14C138.378 39.14 137.766 39.284 137.334 39.572C136.902 39.836 136.686 40.304 136.686 40.976V62.216H135.246ZM151.864 62.504C149.824 62.504 147.928 62.024 146.176 61.064C144.424 60.104 143.02 58.652 141.964 56.708C140.908 54.74 140.38 52.28 140.38 49.328C140.38 46.496 140.848 44.132 141.784 42.236C142.744 40.34 144.064 38.912 145.744 37.952C147.448 36.968 149.416 36.476 151.648 36.476C152.176 36.476 152.776 36.548 153.448 36.692C154.12 36.836 154.708 37.028 155.212 37.268C155.452 37.148 155.776 37.04 156.184 36.944C156.592 36.824 157 36.716 157.408 36.62C157.84 36.524 158.176 36.476 158.416 36.476C158.728 37.244 158.956 38.156 159.1 39.212C159.244 40.244 159.34 41.276 159.388 42.308C159.436 43.316 159.46 44.18 159.46 44.9H155.392C155.2 43.34 154.768 42.068 154.096 41.084C153.448 40.1 152.596 39.608 151.54 39.608C150.148 39.608 148.996 40.268 148.084 41.588C147.196 42.908 146.752 45.068 146.752 48.068C146.752 50.54 147.088 52.52 147.76 54.008C148.432 55.472 149.32 56.528 150.424 57.176C151.528 57.8 152.716 58.112 153.988 58.112C155.092 58.112 156.028 57.908 156.796 57.5C157.564 57.068 158.104 56.624 158.416 56.168C158.728 56.384 158.968 56.72 159.136 57.176C159.328 57.608 159.424 57.992 159.424 58.328C159.424 58.88 159.124 59.492 158.524 60.164C157.948 60.812 157.096 61.364 155.968 61.82C154.864 62.276 153.496 62.504 151.864 62.504ZM180.096 62.576C179.952 62.528 179.772 62.468 179.556 62.396C179.34 62.324 179.016 62.192 178.584 62H161.916C161.676 61.688 161.472 61.34 161.304 60.956C161.16 60.548 161.088 60.14 161.088 59.732C161.88 59.732 162.468 59.588 162.852 59.3C163.26 59.012 163.464 58.532 163.464 57.86V40.976C163.464 40.304 163.272 39.836 162.888 39.572C162.504 39.284 161.916 39.14 161.124 39.14C161.124 38.732 161.196 38.336 161.34 37.952C161.508 37.544 161.712 37.184 161.952 36.872H175.92C176.352 36.68 176.832 36.536 177.36 36.44C177.888 36.32 178.38 36.26 178.836 36.26C179.052 36.644 179.292 37.208 179.556 37.952C179.844 38.672 180.096 39.392 180.312 40.112C180.528 40.832 180.636 41.396 180.636 41.804C180.444 41.996 180.132 42.188 179.7 42.38C179.292 42.572 178.872 42.74 178.44 42.884C178.008 43.028 177.648 43.136 177.36 43.208C177.096 42.416 176.628 41.672 175.956 40.976C175.308 40.28 174.504 39.932 173.544 39.932H169.476V47.528H172.068C172.74 47.528 173.292 47.336 173.724 46.952C174.18 46.544 174.408 45.86 174.408 44.9C175.488 44.9 176.46 45.152 177.324 45.656V52.352C176.508 52.856 175.548 53.108 174.444 53.108C174.444 52.148 174.216 51.452 173.76 51.02C173.328 50.588 172.776 50.372 172.104 50.372H169.476V58.832H173.832C174.888 58.832 175.776 58.4 176.496 57.536C177.24 56.648 177.696 55.604 177.864 54.404H181.716C181.716 54.764 181.656 55.328 181.536 56.096C181.44 56.84 181.308 57.656 181.14 58.544C180.996 59.408 180.828 60.212 180.636 60.956C180.444 61.7 180.264 62.24 180.096 62.576ZM202.752 62.252C201.216 62.252 200.04 62 199.224 61.496C198.408 60.968 197.808 60.272 197.424 59.408C197.04 58.544 196.704 57.596 196.416 56.564C196.248 55.868 196.032 55.148 195.768 54.404C195.528 53.66 195.24 53 194.904 52.424C194.568 51.848 194.16 51.476 193.68 51.308H191.304V57.896C191.304 58.568 191.544 59.048 192.024 59.336C192.504 59.6 193.092 59.732 193.788 59.732C193.788 60.596 193.524 61.352 192.996 62H183.96C183.408 61.328 183.132 60.572 183.132 59.732C183.948 59.732 184.536 59.6 184.896 59.336C185.28 59.048 185.472 58.568 185.472 57.896V40.976C185.472 40.304 185.28 39.836 184.896 39.572C184.512 39.284 183.912 39.14 183.096 39.14C183.096 38.732 183.156 38.324 183.276 37.916C183.396 37.508 183.576 37.16 183.816 36.872C184.848 36.872 185.808 36.86 186.696 36.836C187.584 36.788 188.4 36.752 189.144 36.728C189.792 36.68 190.5 36.644 191.268 36.62C192.06 36.596 192.828 36.584 193.572 36.584C196.068 36.584 198.048 36.872 199.512 37.448C201 38.024 202.068 38.828 202.716 39.86C203.364 40.892 203.688 42.116 203.688 43.532C203.688 47.036 201.756 49.184 197.892 49.976C198.948 50.288 199.968 51.032 200.952 52.208C201.96 53.384 202.716 54.8 203.22 56.456C203.484 57.344 203.82 58.016 204.228 58.472C204.66 58.928 205.212 59.204 205.884 59.3V61.1C205.572 61.556 205.128 61.856 204.552 62C203.976 62.168 203.376 62.252 202.752 62.252ZM192.888 48.824C194.352 48.824 195.48 48.368 196.272 47.456C197.088 46.544 197.496 45.356 197.496 43.892C197.496 42.404 197.148 41.276 196.452 40.508C195.756 39.716 194.628 39.32 193.068 39.32C192.828 39.32 192.516 39.332 192.132 39.356C191.772 39.38 191.496 39.416 191.304 39.464V48.752C191.472 48.776 191.736 48.8 192.096 48.824C192.456 48.824 192.72 48.824 192.888 48.824Z" fill="#EDE9DD"/>
</svg>
