<svg width="100" height="100" viewBox="0 0 100 100" fill="none" xmlns="http://www.w3.org/2000/svg">
<rect width="100" height="100" rx="50" fill="#544013"/>
<path d="M13.164 48.098L10.686 39.768C10.6207 39.5253 10.5227 39.3573 10.392 39.264C10.2613 39.1613 10.0373 39.11 9.72 39.11C9.72 38.9513 9.734 38.802 9.762 38.662C9.79 38.5127 9.846 38.368 9.93 38.228H13.71C13.766 38.34 13.8173 38.4753 13.864 38.634C13.92 38.7927 13.948 38.9513 13.948 39.11C13.5933 39.11 13.36 39.1753 13.248 39.306C13.1453 39.4273 13.094 39.5673 13.094 39.726L14.298 44.248L14.522 45.396L15.852 40.286C15.9173 39.9313 16.034 39.614 16.202 39.334C16.37 39.054 16.5987 38.914 16.888 38.914H18.358L19.744 44.248L20.052 45.452L20.374 44.22L21.41 40.188C21.438 40.0853 21.452 39.992 21.452 39.908C21.452 39.6653 21.3633 39.474 21.186 39.334C21.0087 39.1847 20.7707 39.11 20.472 39.11C20.472 38.9513 20.486 38.802 20.514 38.662C20.542 38.5127 20.5933 38.368 20.668 38.228H23.958C24.0327 38.3587 24.084 38.4987 24.112 38.648C24.1493 38.7973 24.168 38.9513 24.168 39.11C23.8507 39.11 23.5987 39.1613 23.412 39.264C23.2347 39.3573 23.1087 39.5253 23.034 39.768L21.27 46.18C21.0927 46.8333 20.8593 47.3187 20.57 47.636C20.29 47.944 19.9167 48.098 19.45 48.098H18.666L17.378 43.59L16.832 41.532L16.384 43.604L15.67 46.18C15.4927 46.8333 15.2733 47.3187 15.012 47.636C14.7507 47.944 14.3867 48.098 13.92 48.098H13.164ZM23.249 48C23.0344 47.7667 22.927 47.468 22.927 47.104C23.179 47.104 23.4124 47.0293 23.627 46.88C23.851 46.7307 24.0144 46.502 24.117 46.194L26.413 39.418C26.0397 39.2967 25.5684 39.236 24.999 39.236C24.999 38.8347 25.111 38.4987 25.335 38.228H29.171L31.775 46.152C31.8777 46.46 32.041 46.698 32.265 46.866C32.489 47.0247 32.7224 47.104 32.965 47.104C32.965 47.468 32.8577 47.7667 32.643 48H28.849C28.6344 47.7667 28.527 47.468 28.527 47.104C28.7697 47.104 28.961 47.0527 29.101 46.95C29.2504 46.838 29.325 46.6653 29.325 46.432C29.325 46.348 29.3157 46.25 29.297 46.138C29.2877 46.026 29.2644 45.9047 29.227 45.774L29.143 45.48H26.007L25.923 45.774C25.8857 45.8953 25.853 46.0073 25.825 46.11C25.8064 46.2127 25.797 46.306 25.797 46.39C25.797 46.642 25.8764 46.824 26.035 46.936C26.1937 47.048 26.413 47.104 26.693 47.104C26.693 47.468 26.5857 47.7667 26.371 48H23.249ZM26.315 44.388H28.835L27.841 40.916C27.757 40.636 27.6497 40.398 27.519 40.202L26.315 44.388ZM40.6896 48.098C40.0923 48.098 39.635 48 39.3176 47.804C39.0003 47.5987 38.767 47.328 38.6176 46.992C38.4683 46.656 38.3376 46.2873 38.2256 45.886C38.1603 45.6153 38.0763 45.3353 37.9736 45.046C37.8803 44.7567 37.7683 44.5 37.6376 44.276C37.507 44.052 37.3483 43.9073 37.1616 43.842H36.2376V46.404C36.2376 46.6653 36.331 46.852 36.5176 46.964C36.7043 47.0667 36.933 47.118 37.2036 47.118C37.2036 47.454 37.101 47.748 36.8956 48H33.3816C33.167 47.7387 33.0596 47.4447 33.0596 47.118C33.377 47.118 33.6056 47.0667 33.7456 46.964C33.895 46.852 33.9696 46.6653 33.9696 46.404V39.824C33.9696 39.5627 33.895 39.3807 33.7456 39.278C33.5963 39.166 33.363 39.11 33.0456 39.11C33.0456 38.9513 33.069 38.7927 33.1156 38.634C33.1623 38.4753 33.2323 38.34 33.3256 38.228C33.727 38.228 34.1003 38.2233 34.4456 38.214C34.791 38.1953 35.1083 38.1813 35.3976 38.172C35.6496 38.1533 35.925 38.1393 36.2236 38.13C36.5316 38.1207 36.8303 38.116 37.1196 38.116C38.0903 38.116 38.8603 38.228 39.4296 38.452C40.0083 38.676 40.4236 38.9887 40.6756 39.39C40.9276 39.7913 41.0536 40.2673 41.0536 40.818C41.0536 42.1807 40.3023 43.016 38.7996 43.324C39.2103 43.4453 39.607 43.7347 39.9896 44.192C40.3816 44.6493 40.6756 45.2 40.8716 45.844C40.9743 46.1893 41.105 46.4507 41.2636 46.628C41.4316 46.8053 41.6463 46.9127 41.9076 46.95V47.65C41.7863 47.8273 41.6136 47.944 41.3896 48C41.1656 48.0653 40.9323 48.098 40.6896 48.098ZM36.8536 42.876C37.423 42.876 37.8616 42.6987 38.1696 42.344C38.487 41.9893 38.6456 41.5273 38.6456 40.958C38.6456 40.3793 38.5103 39.9407 38.2396 39.642C37.969 39.334 37.5303 39.18 36.9236 39.18C36.8303 39.18 36.709 39.1847 36.5596 39.194C36.4196 39.2033 36.3123 39.2173 36.2376 39.236V42.848C36.303 42.8573 36.4056 42.8667 36.5456 42.876C36.6856 42.876 36.7883 42.876 36.8536 42.876ZM50.3121 48.084C49.8268 48.084 49.4768 48.0187 49.2621 47.888C49.0568 47.7573 48.8655 47.5613 48.6881 47.3L44.7681 41.35V46.404C44.7681 46.6653 44.8568 46.852 45.0341 46.964C45.2208 47.0667 45.4728 47.118 45.7901 47.118C45.7901 47.4447 45.6828 47.7387 45.4681 48H42.5561C42.3508 47.748 42.2481 47.454 42.2481 47.118C42.5655 47.118 42.8035 47.0667 42.9621 46.964C43.1301 46.852 43.2141 46.6653 43.2141 46.404V39.824C43.2141 39.5627 43.1208 39.3807 42.9341 39.278C42.7568 39.166 42.5095 39.11 42.1921 39.11C42.1921 38.7553 42.2948 38.4613 42.5001 38.228H44.4461C44.7168 38.228 44.9875 38.3353 45.2581 38.55C45.5381 38.7553 45.7948 39.0447 46.0281 39.418L49.2061 44.444V39.824C49.2061 39.5627 49.1175 39.3807 48.9401 39.278C48.7721 39.166 48.5295 39.11 48.2121 39.11C48.2121 38.9513 48.2401 38.7927 48.2961 38.634C48.3521 38.4753 48.4315 38.34 48.5341 38.228H51.5161C51.7308 38.4707 51.8381 38.7647 51.8381 39.11C51.5301 39.11 51.2921 39.166 51.1241 39.278C50.9561 39.3807 50.8721 39.5627 50.8721 39.824V48.084H50.3121ZM59.715 48.224C59.659 48.2053 59.589 48.182 59.505 48.154C59.421 48.126 59.295 48.0747 59.127 48H52.645C52.5517 47.8787 52.4723 47.7433 52.407 47.594C52.351 47.4353 52.323 47.2767 52.323 47.118C52.631 47.118 52.8597 47.062 53.009 46.95C53.1677 46.838 53.247 46.6513 53.247 46.39V39.824C53.247 39.5627 53.1723 39.3807 53.023 39.278C52.8737 39.166 52.645 39.11 52.337 39.11C52.337 38.9513 52.365 38.7973 52.421 38.648C52.4863 38.4893 52.5657 38.3493 52.659 38.228H58.091C58.259 38.1533 58.4457 38.0973 58.651 38.06C58.8563 38.0133 59.0477 37.99 59.225 37.99C59.309 38.1393 59.4023 38.3587 59.505 38.648C59.617 38.928 59.715 39.208 59.799 39.488C59.883 39.768 59.925 39.9873 59.925 40.146C59.8503 40.2207 59.729 40.2953 59.561 40.37C59.4023 40.4447 59.239 40.51 59.071 40.566C58.903 40.622 58.763 40.664 58.651 40.692C58.5483 40.384 58.3663 40.0947 58.105 39.824C57.853 39.5533 57.5403 39.418 57.167 39.418H55.585V42.372H56.593C56.8543 42.372 57.069 42.2973 57.237 42.148C57.4143 41.9893 57.503 41.7233 57.503 41.35C57.923 41.35 58.301 41.448 58.637 41.644V44.248C58.3197 44.444 57.9463 44.542 57.517 44.542C57.517 44.1687 57.4283 43.898 57.251 43.73C57.083 43.562 56.8683 43.478 56.607 43.478H55.585V46.768H57.279C57.6897 46.768 58.035 46.6 58.315 46.264C58.6043 45.9187 58.7817 45.5127 58.847 45.046H60.345C60.345 45.186 60.3217 45.4053 60.275 45.704C60.2377 45.9933 60.1863 46.3107 60.121 46.656C60.065 46.992 59.9997 47.3047 59.925 47.594C59.8503 47.8833 59.7803 48.0933 59.715 48.224ZM68.5256 48.098C67.9282 48.098 67.4709 48 67.1536 47.804C66.8362 47.5987 66.6029 47.328 66.4536 46.992C66.3042 46.656 66.1736 46.2873 66.0616 45.886C65.9962 45.6153 65.9122 45.3353 65.8096 45.046C65.7162 44.7567 65.6042 44.5 65.4736 44.276C65.3429 44.052 65.1842 43.9073 64.9976 43.842H64.0736V46.404C64.0736 46.6653 64.1669 46.852 64.3536 46.964C64.5402 47.0667 64.7689 47.118 65.0396 47.118C65.0396 47.454 64.9369 47.748 64.7316 48H61.2176C61.0029 47.7387 60.8956 47.4447 60.8956 47.118C61.2129 47.118 61.4416 47.0667 61.5816 46.964C61.7309 46.852 61.8056 46.6653 61.8056 46.404V39.824C61.8056 39.5627 61.7309 39.3807 61.5816 39.278C61.4322 39.166 61.1989 39.11 60.8816 39.11C60.8816 38.9513 60.9049 38.7927 60.9516 38.634C60.9982 38.4753 61.0682 38.34 61.1616 38.228C61.5629 38.228 61.9362 38.2233 62.2816 38.214C62.6269 38.1953 62.9442 38.1813 63.2336 38.172C63.4856 38.1533 63.7609 38.1393 64.0596 38.13C64.3676 38.1207 64.6662 38.116 64.9556 38.116C65.9262 38.116 66.6962 38.228 67.2656 38.452C67.8442 38.676 68.2596 38.9887 68.5116 39.39C68.7636 39.7913 68.8896 40.2673 68.8896 40.818C68.8896 42.1807 68.1382 43.016 66.6356 43.324C67.0462 43.4453 67.4429 43.7347 67.8256 44.192C68.2176 44.6493 68.5116 45.2 68.7076 45.844C68.8102 46.1893 68.9409 46.4507 69.0996 46.628C69.2676 46.8053 69.4822 46.9127 69.7436 46.95V47.65C69.6222 47.8273 69.4496 47.944 69.2256 48C69.0016 48.0653 68.7682 48.098 68.5256 48.098ZM64.6896 42.876C65.2589 42.876 65.6976 42.6987 66.0056 42.344C66.3229 41.9893 66.4816 41.5273 66.4816 40.958C66.4816 40.3793 66.3462 39.9407 66.0756 39.642C65.8049 39.334 65.3662 39.18 64.7596 39.18C64.6662 39.18 64.5449 39.1847 64.3956 39.194C64.2556 39.2033 64.1482 39.2173 64.0736 39.236V42.848C64.1389 42.8573 64.2416 42.8667 64.3816 42.876C64.5216 42.876 64.6242 42.876 64.6896 42.876ZM29.8521 62.21C29.7308 61.9673 29.6188 61.6313 29.5161 61.202C29.4228 60.7633 29.3434 60.306 29.2781 59.83C29.2221 59.354 29.1941 58.9293 29.1941 58.556H30.5941C30.7434 59.3493 31.0374 59.97 31.4761 60.418C31.9241 60.866 32.4421 61.09 33.0301 61.09C33.3194 61.09 33.5434 61.034 33.7021 60.922C33.8701 60.8007 33.9914 60.656 34.0661 60.488C34.1408 60.32 34.1781 60.1613 34.1781 60.012C34.1781 59.704 34.0754 59.438 33.8701 59.214C33.6648 58.99 33.4034 58.7893 33.0861 58.612C32.7781 58.4253 32.4654 58.2573 32.1481 58.108C31.3268 57.7067 30.6781 57.2493 30.2021 56.736C29.7261 56.2133 29.4881 55.56 29.4881 54.776C29.4881 54.2067 29.6281 53.726 29.9081 53.334C30.1881 52.9327 30.5614 52.6247 31.0281 52.41C31.5041 52.1953 32.0361 52.088 32.6241 52.088C32.8948 52.088 33.2121 52.116 33.5761 52.172C33.9494 52.228 34.2528 52.3213 34.4861 52.452L35.6761 52.088C35.8068 52.3027 35.8954 52.5873 35.9421 52.942C35.9981 53.2873 36.0308 53.6467 36.0401 54.02C36.0588 54.3933 36.0681 54.734 36.0681 55.042V55.252H34.9061C34.7101 54.4587 34.4348 53.922 34.0801 53.642C33.7254 53.3527 33.3428 53.208 32.9321 53.208C32.5494 53.208 32.2648 53.32 32.0781 53.544C31.9008 53.7587 31.8121 54.0293 31.8121 54.356C31.8121 54.6547 31.8914 54.9067 32.0501 55.112C32.2181 55.3173 32.4328 55.4993 32.6941 55.658C32.9554 55.8073 33.2308 55.9567 33.5201 56.106C33.8374 56.2553 34.1688 56.428 34.5141 56.624C34.8594 56.8107 35.1768 57.03 35.4661 57.282C35.7648 57.534 36.0028 57.8327 36.1801 58.178C36.3668 58.5233 36.4601 58.9293 36.4601 59.396C36.4601 59.9093 36.3294 60.3807 36.0681 60.81C35.8068 61.23 35.4334 61.5707 34.9481 61.832C34.4628 62.084 33.8748 62.21 33.1841 62.21C32.8668 62.21 32.5168 62.1727 32.1341 62.098C31.7608 62.0327 31.3594 61.9113 30.9301 61.734L29.8521 62.21ZM37.5923 62C37.3776 61.7573 37.2703 61.4587 37.2703 61.104C37.5876 61.104 37.8116 61.0527 37.9423 60.95C38.0823 60.8473 38.1523 60.6653 38.1523 60.404V53.824C38.1523 53.5627 38.0823 53.3807 37.9423 53.278C37.8116 53.166 37.5876 53.11 37.2703 53.11C37.2703 52.9513 37.2983 52.7973 37.3543 52.648C37.4103 52.4893 37.4849 52.3493 37.5783 52.228C38.4929 52.228 39.2256 52.214 39.7763 52.186C40.3269 52.1487 40.7983 52.13 41.1903 52.13C42.1796 52.13 42.9636 52.2513 43.5423 52.494C44.1303 52.7367 44.5503 53.096 44.8023 53.572C45.0636 54.0387 45.1943 54.6127 45.1943 55.294C45.1943 55.9007 45.0403 56.4513 44.7323 56.946C44.4336 57.4407 43.9763 57.8327 43.3603 58.122C42.7536 58.402 41.9789 58.542 41.0363 58.542H40.4483V59.774C40.4483 60.138 40.4856 60.418 40.5603 60.614C40.6443 60.8007 40.7983 60.9313 41.0222 61.006C41.2463 61.0713 41.5636 61.104 41.9743 61.104C41.9743 61.468 41.8716 61.7667 41.6663 62H37.5923ZM40.8123 57.422C41.2509 57.422 41.5963 57.3567 41.8483 57.226C42.1096 57.086 42.3056 56.9087 42.4363 56.694C42.5669 56.4793 42.6509 56.246 42.6883 55.994C42.7349 55.7327 42.7583 55.4853 42.7583 55.252C42.7583 54.8973 42.7023 54.566 42.5903 54.258C42.4876 53.95 42.3056 53.7027 42.0443 53.516C41.7923 53.3293 41.4329 53.236 40.9663 53.236C40.7609 53.236 40.5883 53.2547 40.4483 53.292V57.394C40.5136 57.4033 40.5743 57.4127 40.6303 57.422C40.6863 57.422 40.7469 57.422 40.8123 57.422ZM52.9474 62.224C52.8914 62.2053 52.8214 62.182 52.7374 62.154C52.6534 62.126 52.5274 62.0747 52.3594 62H45.8774C45.7841 61.8787 45.7047 61.7433 45.6394 61.594C45.5834 61.4353 45.5554 61.2767 45.5554 61.118C45.8634 61.118 46.0921 61.062 46.2414 60.95C46.4001 60.838 46.4794 60.6513 46.4794 60.39V53.824C46.4794 53.5627 46.4047 53.3807 46.2554 53.278C46.1061 53.166 45.8774 53.11 45.5694 53.11C45.5694 52.9513 45.5974 52.7973 45.6534 52.648C45.7187 52.4893 45.7981 52.3493 45.8914 52.228H51.3234C51.4914 52.1533 51.6781 52.0973 51.8834 52.06C52.0887 52.0133 52.2801 51.99 52.4574 51.99C52.5414 52.1393 52.6347 52.3587 52.7374 52.648C52.8494 52.928 52.9474 53.208 53.0314 53.488C53.1154 53.768 53.1574 53.9873 53.1574 54.146C53.0827 54.2207 52.9614 54.2953 52.7934 54.37C52.6347 54.4447 52.4714 54.51 52.3034 54.566C52.1354 54.622 51.9954 54.664 51.8834 54.692C51.7807 54.384 51.5987 54.0947 51.3374 53.824C51.0854 53.5533 50.7727 53.418 50.3994 53.418H48.8174V56.372H49.8254C50.0867 56.372 50.3014 56.2973 50.4694 56.148C50.6467 55.9893 50.7354 55.7233 50.7354 55.35C51.1554 55.35 51.5334 55.448 51.8694 55.644V58.248C51.5521 58.444 51.1787 58.542 50.7494 58.542C50.7494 58.1687 50.6607 57.898 50.4834 57.73C50.3154 57.562 50.1007 57.478 49.8394 57.478H48.8174V60.768H50.5114C50.9221 60.768 51.2674 60.6 51.5474 60.264C51.8367 59.9187 52.0141 59.5127 52.0794 59.046H53.5774C53.5774 59.186 53.5541 59.4053 53.5074 59.704C53.4701 59.9933 53.4187 60.3107 53.3534 60.656C53.2974 60.992 53.2321 61.3047 53.1574 61.594C53.0827 61.8833 53.0127 62.0933 52.9474 62.224ZM62.2067 62.084C61.7213 62.084 61.3713 62.0187 61.1567 61.888C60.9513 61.7573 60.76 61.5613 60.5827 61.3L56.6627 55.35V60.404C56.6627 60.6653 56.7513 60.852 56.9287 60.964C57.1153 61.0667 57.3673 61.118 57.6847 61.118C57.6847 61.4447 57.5773 61.7387 57.3627 62H54.4507C54.2453 61.748 54.1427 61.454 54.1427 61.118C54.46 61.118 54.698 61.0667 54.8567 60.964C55.0247 60.852 55.1087 60.6653 55.1087 60.404V53.824C55.1087 53.5627 55.0153 53.3807 54.8287 53.278C54.6513 53.166 54.404 53.11 54.0867 53.11C54.0867 52.7553 54.1893 52.4613 54.3947 52.228H56.3407C56.6113 52.228 56.882 52.3353 57.1527 52.55C57.4327 52.7553 57.6893 53.0447 57.9227 53.418L61.1007 58.444V53.824C61.1007 53.5627 61.012 53.3807 60.8347 53.278C60.6667 53.166 60.424 53.11 60.1067 53.11C60.1067 52.9513 60.1347 52.7927 60.1907 52.634C60.2467 52.4753 60.326 52.34 60.4287 52.228H63.4107C63.6253 52.4707 63.7327 52.7647 63.7327 53.11C63.4247 53.11 63.1867 53.166 63.0187 53.278C62.8507 53.3807 62.7667 53.5627 62.7667 53.824V62.084H62.2067ZM68.6695 62.196C67.8762 62.196 67.1388 62.0093 66.4575 61.636C65.7762 61.2627 65.2302 60.698 64.8195 59.942C64.4088 59.1767 64.2035 58.22 64.2035 57.072C64.2035 55.9707 64.3855 55.0513 64.7495 54.314C65.1228 53.5767 65.6362 53.0213 66.2895 52.648C66.9522 52.2653 67.7175 52.074 68.5855 52.074C68.7908 52.074 69.0242 52.102 69.2855 52.158C69.5468 52.214 69.7755 52.2887 69.9715 52.382C70.0648 52.3353 70.1908 52.2933 70.3495 52.256C70.5082 52.2093 70.6668 52.1673 70.8255 52.13C70.9935 52.0927 71.1242 52.074 71.2175 52.074C71.3388 52.3727 71.4275 52.7273 71.4835 53.138C71.5395 53.5393 71.5768 53.9407 71.5955 54.342C71.6142 54.734 71.6235 55.07 71.6235 55.35H70.0415C69.9668 54.7433 69.7988 54.2487 69.5375 53.866C69.2855 53.4833 68.9542 53.292 68.5435 53.292C68.0022 53.292 67.5542 53.5487 67.1995 54.062C66.8542 54.5753 66.6815 55.4153 66.6815 56.582C66.6815 57.5433 66.8122 58.3133 67.0735 58.892C67.3348 59.4613 67.6802 59.872 68.1095 60.124C68.5388 60.3667 69.0008 60.488 69.4955 60.488C69.9248 60.488 70.2888 60.4087 70.5875 60.25C70.8862 60.082 71.0962 59.9093 71.2175 59.732C71.3388 59.816 71.4322 59.9467 71.4975 60.124C71.5722 60.292 71.6095 60.4413 71.6095 60.572C71.6095 60.7867 71.4928 61.0247 71.2595 61.286C71.0355 61.538 70.7042 61.7527 70.2655 61.93C69.8362 62.1073 69.3042 62.196 68.6695 62.196ZM79.6486 62.224C79.5926 62.2053 79.5226 62.182 79.4386 62.154C79.3546 62.126 79.2286 62.0747 79.0606 62H72.5786C72.4852 61.8787 72.4059 61.7433 72.3406 61.594C72.2846 61.4353 72.2566 61.2767 72.2566 61.118C72.5646 61.118 72.7932 61.062 72.9426 60.95C73.1012 60.838 73.1806 60.6513 73.1806 60.39V53.824C73.1806 53.5627 73.1059 53.3807 72.9566 53.278C72.8072 53.166 72.5786 53.11 72.2706 53.11C72.2706 52.9513 72.2986 52.7973 72.3546 52.648C72.4199 52.4893 72.4992 52.3493 72.5926 52.228H78.0246C78.1926 52.1533 78.3792 52.0973 78.5846 52.06C78.7899 52.0133 78.9812 51.99 79.1586 51.99C79.2426 52.1393 79.3359 52.3587 79.4386 52.648C79.5506 52.928 79.6486 53.208 79.7326 53.488C79.8166 53.768 79.8586 53.9873 79.8586 54.146C79.7839 54.2207 79.6626 54.2953 79.4946 54.37C79.3359 54.4447 79.1726 54.51 79.0046 54.566C78.8366 54.622 78.6966 54.664 78.5846 54.692C78.4819 54.384 78.2999 54.0947 78.0386 53.824C77.7866 53.5533 77.4739 53.418 77.1006 53.418H75.5186V56.372H76.5266C76.7879 56.372 77.0026 56.2973 77.1706 56.148C77.3479 55.9893 77.4366 55.7233 77.4366 55.35C77.8566 55.35 78.2346 55.448 78.5706 55.644V58.248C78.2532 58.444 77.8799 58.542 77.4506 58.542C77.4506 58.1687 77.3619 57.898 77.1846 57.73C77.0166 57.562 76.8019 57.478 76.5406 57.478H75.5186V60.768H77.2126C77.6232 60.768 77.9686 60.6 78.2486 60.264C78.5379 59.9187 78.7152 59.5127 78.7806 59.046H80.2786C80.2786 59.186 80.2552 59.4053 80.2086 59.704C80.1712 59.9933 80.1199 60.3107 80.0546 60.656C79.9986 60.992 79.9332 61.3047 79.8586 61.594C79.7839 61.8833 79.7139 62.0933 79.6486 62.224ZM88.4592 62.098C87.8618 62.098 87.4045 62 87.0872 61.804C86.7698 61.5987 86.5365 61.328 86.3872 60.992C86.2378 60.656 86.1072 60.2873 85.9952 59.886C85.9298 59.6153 85.8458 59.3353 85.7432 59.046C85.6498 58.7567 85.5378 58.5 85.4072 58.276C85.2765 58.052 85.1178 57.9073 84.9312 57.842H84.0072V60.404C84.0072 60.6653 84.1005 60.852 84.2872 60.964C84.4738 61.0667 84.7025 61.118 84.9732 61.118C84.9732 61.454 84.8705 61.748 84.6652 62H81.1512C80.9365 61.7387 80.8292 61.4447 80.8292 61.118C81.1465 61.118 81.3752 61.0667 81.5152 60.964C81.6645 60.852 81.7392 60.6653 81.7392 60.404V53.824C81.7392 53.5627 81.6645 53.3807 81.5152 53.278C81.3658 53.166 81.1325 53.11 80.8152 53.11C80.8152 52.9513 80.8385 52.7927 80.8852 52.634C80.9318 52.4753 81.0018 52.34 81.0952 52.228C81.4965 52.228 81.8698 52.2233 82.2152 52.214C82.5605 52.1953 82.8778 52.1813 83.1672 52.172C83.4192 52.1533 83.6945 52.1393 83.9932 52.13C84.3012 52.1207 84.5998 52.116 84.8892 52.116C85.8598 52.116 86.6298 52.228 87.1992 52.452C87.7778 52.676 88.1932 52.9887 88.4452 53.39C88.6972 53.7913 88.8232 54.2673 88.8232 54.818C88.8232 56.1807 88.0718 57.016 86.5692 57.324C86.9798 57.4453 87.3765 57.7347 87.7592 58.192C88.1512 58.6493 88.4452 59.2 88.6412 59.844C88.7438 60.1893 88.8745 60.4507 89.0332 60.628C89.2012 60.8053 89.4158 60.9127 89.6772 60.95V61.65C89.5558 61.8273 89.3832 61.944 89.1592 62C88.9352 62.0653 88.7018 62.098 88.4592 62.098ZM84.6232 56.876C85.1925 56.876 85.6312 56.6987 85.9392 56.344C86.2565 55.9893 86.4152 55.5273 86.4152 54.958C86.4152 54.3793 86.2798 53.9407 86.0092 53.642C85.7385 53.334 85.2998 53.18 84.6932 53.18C84.5998 53.18 84.4785 53.1847 84.3292 53.194C84.1892 53.2033 84.0818 53.2173 84.0072 53.236V56.848C84.0725 56.8573 84.1752 56.8667 84.3152 56.876C84.4552 56.876 84.5578 56.876 84.6232 56.876Z" fill="#EDE9DD"/>
</svg>
